squats_1_grf
version=1
nRows=30
nColumns=19
inDegrees=no
endheader
time	ground_force_right_vx	ground_force_right_vy	ground_force_right_vz	ground_force_right_px	ground_force_right_py	ground_force_right_pz	ground_force_right_mx	ground_force_right_my	ground_force_right_mz	ground_force_left_vx	ground_force_left_vy	ground_force_left_vz	ground_force_left_px	ground_force_left_py	ground_force_left_pz	ground_force_left_mx	ground_force_left_my	ground_force_left_mz
     21.36900000	      9.93272711	    355.01788023	     51.43099576	     -3.45917725	      0.00727499	      2.31374501	     -0.01483255	      5.08867076	      0.02304023	      4.08131942	    306.02555671	    -48.94763957	     -3.46633521	      0.00798704	      2.68499670	      0.00948820	     -2.85573473	      0.00495892
     21.37000000	     10.02311418	    354.89064312	     51.38314315	     -3.45924293	      0.00727462	      2.31378348	     -0.01488941	      5.10817626	      0.02312855	      4.09734912	    306.71531829	    -48.98911681	     -3.46636794	      0.00798688	      2.68497159	      0.00954430	     -2.87262161	      0.00498824
     21.37100000	     10.10830023	    354.74553174	     51.33198743	     -3.45930981	      0.00727425	      2.31382146	     -0.01494562	      5.12746321	      0.02321588	      4.10342746	    307.38524017	    -49.02743574	     -3.46639942	      0.00798674	      2.68494711	      0.00959984	     -2.88933808	      0.00501727
     21.37200000	     10.18803672	    354.58269360	     51.27754174	     -3.45937775	      0.00727389	      2.31385899	     -0.01500119	      5.14652527	      0.02330219	      4.10004637	    308.03372491	    -49.06315196	     -3.46643012	      0.00798659	      2.68492344	      0.00965462	     -2.90582593	      0.00504590
     21.37300000	     10.26207001	    354.40236556	     51.21984963	     -3.45944662	      0.00727352	      2.31389611	     -0.01505607	      5.16535545	      0.02338744	      4.08778370	    308.65944563	    -49.09684001	     -3.46646053	      0.00798645	      2.68490075	      0.00970846	     -2.92202956	      0.00507404
     21.37400000	     10.33014478	    354.20486454	     51.15898381	     -3.45951630	      0.00727315	      2.31393286	     -0.01511026	      5.18394597	      0.02347162	      4.06729649	    309.26135011	    -49.12908572	     -3.46649111	      0.00798631	      2.68487919	      0.00976118	     -2.93789666	      0.00510159
     21.37500000	     10.39200775	    353.99057822	     51.09504450	     -3.45958665	      0.00727278	      2.31396926	     -0.01516373	      5.20228821	      0.02355467	      4.03931354	    309.83866114	    -49.16047838	     -3.46652232	      0.00798617	      2.68485890	      0.00981262	     -2.95337877	      0.00512848
     21.37600000	     10.44741167	    353.75995592	     51.02815739	     -3.45965755	      0.00727241	      2.31400535	     -0.01521644	      5.22037277	      0.02363655	      4.00462721	    310.39087354	    -49.19160305	     -3.46655457	      0.00798604	      2.68484000	      0.00986263	     -2.96843181	      0.00515462
     21.37700000	     10.49611948	    353.51349975	     50.95847125	     -3.45972887	      0.00727204	      2.31404114	     -0.01526837	      5.23818946	      0.02371722	      3.96408463	    310.91774791	    -49.22303299	     -3.46658825	      0.00798589	      2.68482261	      0.00991109	     -2.98301661	      0.00517994
     21.37800000	     10.53790867	    353.25175631	     50.88615526	     -3.45980048	      0.00727167	      2.31407666	     -0.01531949	      5.25572747	      0.02379663	      3.91857832	    311.41930146	    -49.25532238	     -3.46662374	      0.00798575	      2.68480684	      0.00995788	     -2.99709936	      0.00520440
     21.37900000	     10.57257565	    352.97530902	     50.81139612	     -3.45987228	      0.00727130	      2.31411190	     -0.01536977	      5.27297547	      0.02387472	      3.86903643	    311.89579617	    -49.28899951	     -3.46666136	      0.00798560	      2.68479275	      0.01000291	     -3.01065202	      0.00522793
     21.38000000	     10.59994018	    352.68477112	     50.73439496	     -3.45994417	      0.00727093	      2.31414687	     -0.01541916	      5.28992179	      0.02395145	      3.81641258	    312.34772466	    -49.32456048	     -3.46670142	      0.00798544	      2.68478043	      0.01004610	     -3.02365264	      0.00525051
     21.38100000	     10.61984970	    352.38077948	     50.65536419	     -3.46001603	      0.00727057	      2.31418157	     -0.01546764	      5.30655461	      0.02402676	      3.76167543	    312.77579400	    -49.36246352	     -3.46674416	      0.00798528	      2.68476992	      0.01008741	     -3.03608562	      0.00527210
     21.38200000	     10.63218359	    352.06398932	     50.57452424	     -3.46008778	      0.00727020	      2.31421598	     -0.01551518	      5.32286218	      0.02410060	      3.70579815	    313.18090802	    -49.40312403	     -3.46678980	      0.00798512	      2.68476127	      0.01012680	     -3.04794191	      0.00529268
     21.38300000	     10.63685716	    351.73506978	     50.49210041	     -3.46015935	      0.00726984	      2.31425011	     -0.01556173	      5.33883305	      0.02417291	      3.64974786	    313.56414822	    -49.44691047	     -3.46683851	      0.00798494	      2.68475448	      0.01016427	     -3.05921906	      0.00531227
     21.38400000	     10.63382549	    351.39470045	     50.40831978	     -3.46023066	      0.00726948	      2.31428392	     -0.01560727	      5.35445628	      0.02424365	      3.59447502	    313.92675382	    -49.49414099	     -3.46689044	      0.00798476	      2.68474958	      0.01019983	     -3.06992128	      0.00533085
     21.38500000	     10.62308688	    351.04356891	     50.32340835	     -3.46030165	      0.00726912	      2.31431741	     -0.01565176	      5.36972176	      0.02431276	      3.54090320	    314.27010120	    -49.54508099	     -3.46694565	      0.00798457	      2.68474654	      0.01023351	     -3.08005932	      0.00534846
     21.38600000	     10.60468600	    350.68236904	     50.23758831	     -3.46037226	      0.00726876	      2.31435054	     -0.01569519	      5.38462041	      0.02438022	      3.48991900	    314.59568302	    -49.59994164	     -3.46700419	      0.00798438	      2.68474534	      0.01026538	     -3.08965029	      0.00536511
     21.38700000	     10.57871667	    350.31180044	     50.15107564	     -3.46044245	      0.00726841	      2.31438331	     -0.01573753	      5.39914447	      0.02444598	      3.44236249	    314.90508723	    -49.65887920	     -3.46706604	      0.00798417	      2.68474595	      0.01029551	     -3.09871744	      0.00538086
     21.38800000	     10.54532419	    349.93256859	     50.06407795	     -3.46051217	      0.00726806	      2.31441568	     -0.01577875	      5.41328776	      0.02451002	      3.39901805	    315.19997638	    -49.72199526	     -3.46713116	      0.00798396	      2.68474831	      0.01032399	     -3.10728977	      0.00539574
     21.38900000	     10.50470726	    349.54538594	     49.97679257	     -3.46058140	      0.00726771	      2.31444764	     -0.01581885	      5.42704594	      0.02457231	      3.36060596	    315.48206728	    -49.78933790	     -3.46719945	      0.00798374	      2.68475237	      0.01035094	     -3.11540167	      0.00540983
     21.39000000	     10.45711940	    349.15097377	     49.88940496	     -3.46065011	      0.00726737	      2.31447918	     -0.01585783	      5.44041679	      0.02463285	      3.32777462	    315.75311130	    -49.86090359	     -3.46727075	      0.00798351	      2.68475804	      0.01037649	     -3.12309238	      0.00542318
     21.39100000	     10.40286986	    348.75006483	     49.80208742	     -3.46071827	      0.00726703	      2.31451027	     -0.01589567	      5.45340038	      0.02469164	      3.30109372	    316.01487547	    -49.93663990	     -3.46734488	      0.00798328	      2.68476525	      0.01040079	     -3.13040550	      0.00543588
     21.39200000	     10.34232389	    348.34340642	     49.71499801	     -3.46078585	      0.00726669	      2.31454092	     -0.01593240	      5.46599934	      0.02474868	      3.28104823	    316.26912459	    -50.01644893	     -3.46742161	      0.00798304	      2.68477392	      0.01042399	     -3.13738838	      0.00544801
     21.39300000	     10.27590232	    347.93176412	     49.62827980	     -3.46085286	      0.00726636	      2.31457112	     -0.01596801	      5.47821898	      0.02480401	      3.26803358	    316.51760445	    -50.10019133	     -3.46750068	      0.00798279	      2.68478393	      0.01044626	     -3.14409146	      0.00545965
     21.39400000	     10.20408046	    347.51592567	     49.54206031	     -3.46091925	      0.00726603	      2.31460086	     -0.01600255	      5.49006746	      0.02485766	      3.26235175	    316.76202628	    -50.18769096	     -3.46758180	      0.00798254	      2.68479521	      0.01046778	     -3.15056764	      0.00547089
     21.39500000	     10.12738607	    347.09670502	     49.45645118	     -3.46098502	      0.00726571	      2.31463017	     -0.01603604	      5.50155591	      0.02490968	      3.26420875	    317.00405268	    -50.27873986	     -3.46766462	      0.00798229	      2.68480764	      0.01048872	     -3.15687159	      0.00548184
     21.39600000	     10.04639657	    346.67494633	     49.37154802	     -3.46105014	      0.00726539	      2.31465904	     -0.01606851	      5.51269849	      0.02496013	      3.27371314	    317.24528500	    -50.37310369	     -3.46774881	      0.00798203	      2.68482112	      0.01050928	     -3.16305909	      0.00549258
     21.39700000	      9.96173524	    346.25152765	     49.28743040	     -3.46111460	      0.00726507	      2.31468751	     -0.01610004	      5.52351241	      0.02500909	      3.29087589	    317.48725228	    -50.47052737	     -3.46783398	      0.00798178	      2.68483554	      0.01052964	     -3.16918631	      0.00550322
     21.39800000	      9.87406654	    345.82736404	     49.20416203	     -3.46117836	      0.00726476	      2.31471560	     -0.01613066	      5.53401801	      0.02505666	      3.31561145	    317.73140183	    -50.57074072	     -3.46791973	      0.00798152	      2.68485082	      0.01054998	     -3.17530924	      0.00551386
